<svg xmlns="http://www.w3.org/2000/svg" xmlns:xlink="http://www.w3.org/1999/xlink" viewBox="0 0 977.1 410.19"><defs><style>.cls-1{fill:url(#linear-gradient);}</style><linearGradient id="linear-gradient" x1="-8.18" y1="200.44" x2="1061.77" y2="200.44" gradientUnits="userSpaceOnUse"><stop offset="0" stop-color="blue"/><stop offset="1" stop-color="#fff"/></linearGradient></defs><title>Asset 1</title><g id="Layer_2" data-name="Layer 2"><g id="Layer_1-2" data-name="Layer 1"><path class="cls-1" d="M84.69,88V4.46h22.07l17.36,30.63a264.62,264.62,0,0,1,13.64,28.64H138a343.52,343.52,0,0,1-1.49-35V4.46h17.36V88H134L116.18,55.8a282.47,282.47,0,0,1-14.5-29.51h-.5c.62,11.16.87,22.94.87,36.57V88Z"/><path class="cls-1" d="M220.09,73.4c0,5.71.25,11.29,1,14.64h-17L203,82h-.37c-4,4.84-10.17,7.44-17.36,7.44-12.27,0-19.59-8.93-19.59-18.6,0-15.75,14.13-23.19,35.59-23.19v-.74c0-3.35-1.74-7.94-11-7.94a34.11,34.11,0,0,0-16.74,4.59L170,31.37c4.22-2.36,12.52-5.46,23.56-5.46,20.21,0,26.53,11.91,26.53,26.29Zm-18.22-14c-9.92,0-17.61,2.36-17.61,9.55,0,4.84,3.22,7.19,7.44,7.19a10.41,10.41,0,0,0,9.79-6.94,13.42,13.42,0,0,0,.38-3.23Z"/><path class="cls-1" d="M247.62,27.4l8.19,28.15c1.48,5.21,2.48,9.92,3.47,14.75h.37c1-5,2-9.54,3.35-14.75l7.81-28.15h19.84L268.08,88H249.23L227.16,27.4Z"/><path class="cls-1" d="M318.8,10.54c0,5.21-3.84,9.42-10.17,9.42-5.95,0-9.79-4.21-9.79-9.42s4-9.42,10-9.42S318.67,5.21,318.8,10.54ZM299.33,88V27.4h18.85V88Z"/><path class="cls-1" d="M390.71,79.23c0,11.66-2.35,21.2-9.29,27.28-6.58,5.7-15.63,7.44-24.56,7.44-8.05,0-16.36-1.61-21.82-4.59L338.76,95a36.92,36.92,0,0,0,17.61,4.59c8.93,0,15.75-4.72,15.75-16V79.73h-.25c-3.6,5-9.43,7.81-16.37,7.81-15,0-25.67-12.15-25.67-29.51,0-19.59,12.53-32,27.53-32,8.31,0,13.52,3.59,16.62,8.68h.24l.62-7.32h16.37c-.25,4-.5,9.05-.5,18.11ZM371.87,52.08a17,17,0,0,0-.37-3.47c-1.37-5-5-8.31-10.17-8.31-6.94,0-12.4,6.2-12.4,17.23,0,9,4.46,16.12,12.27,16.12a10.31,10.31,0,0,0,10.05-7.56,17.55,17.55,0,0,0,.62-5.09Z"/><path class="cls-1" d="M456.31,73.4c0,5.71.25,11.29,1,14.64h-17L439.2,82h-.37c-4,4.84-10.17,7.44-17.36,7.44-12.28,0-19.59-8.93-19.59-18.6,0-15.75,14.13-23.19,35.58-23.19v-.74c0-3.35-1.73-7.94-11-7.94a34.11,34.11,0,0,0-16.74,4.59l-3.47-12.15c4.21-2.36,12.52-5.46,23.56-5.46,20.21,0,26.53,11.91,26.53,26.29Zm-18.23-14c-9.92,0-17.6,2.36-17.6,9.55,0,4.84,3.22,7.19,7.44,7.19a10.42,10.42,0,0,0,9.79-6.94,13.43,13.43,0,0,0,.37-3.23Z"/><path class="cls-1" d="M491.4,11V27.4h13.52V41.29H491.4v22c0,7.31,1.86,10.66,7.44,10.66a22.69,22.69,0,0,0,5.58-.5l.13,14.26a39.66,39.66,0,0,1-12.15,1.61c-6.08,0-11.16-2.1-14.26-5.2-3.47-3.6-5.21-9.43-5.21-18V41.29h-8.06V27.4h8.06V16.12Z"/><path class="cls-1" d="M535.3,10.54c0,5.21-3.84,9.42-10.17,9.42-6,0-9.79-4.21-9.79-9.42s4-9.42,10-9.42S535.18,5.21,535.3,10.54ZM515.83,88V27.4h18.85V88Z"/><path class="cls-1" d="M549.81,46.75c0-7.57-.25-13.89-.5-19.35h16.37l.87,8.43h.37A21.78,21.78,0,0,1,585.64,26c12.4,0,21.7,8.31,21.7,26.16V88H588.49V54.43c0-7.81-2.72-13.14-9.55-13.14-5.2,0-8.3,3.6-9.67,7.07a13.69,13.69,0,0,0-.62,4.71V88H549.81Z"/><path class="cls-1" d="M679.88,79.23c0,11.66-2.36,21.2-9.3,27.28C664,112.21,655,114,646,114c-8.06,0-16.37-1.61-21.82-4.59L627.93,95a36.85,36.85,0,0,0,17.6,4.59c8.93,0,15.75-4.72,15.75-16V79.73H661c-3.59,5-9.42,7.81-16.36,7.81C629.66,87.54,619,75.39,619,58c0-19.59,12.52-32,27.52-32,8.31,0,13.52,3.59,16.62,8.68h.25L664,27.4h16.37c-.25,4-.5,9.05-.5,18.11ZM661,52.08a16.31,16.31,0,0,0-.37-3.47c-1.36-5-5-8.31-10.17-8.31-6.94,0-12.4,6.2-12.4,17.23,0,9,4.47,16.12,12.28,16.12a10.3,10.3,0,0,0,10-7.56A17.21,17.21,0,0,0,661,61Z"/><path class="cls-1" d="M741.14,11V27.4h13.51V41.29H741.14v22c0,7.31,1.86,10.66,7.44,10.66a22.79,22.79,0,0,0,5.58-.5l.12,14.26a39.61,39.61,0,0,1-12.15,1.61c-6.08,0-11.16-2.1-14.26-5.2-3.47-3.6-5.21-9.43-5.21-18V41.29H714.6V27.4h8.06V16.12Z"/><path class="cls-1" d="M765.56,0h18.85V34.72h.25a20.27,20.27,0,0,1,7.44-6.33A21.62,21.62,0,0,1,801.89,26c12,0,21.21,8.31,21.21,26.66V88H804.25V54.68c0-7.93-2.73-13.39-9.8-13.39A10,10,0,0,0,785,48a10.78,10.78,0,0,0-.62,4.09V88H765.56Z"/><path class="cls-1" d="M852.73,63.73c.5,7.81,8.31,11.53,17.12,11.53a49.8,49.8,0,0,0,16.73-2.6l2.48,12.77c-6.2,2.61-13.76,3.84-21.94,3.84-20.59,0-32.36-11.9-32.36-30.87C834.76,43,844.3,26,865.38,26c19.59,0,27,15.25,27,30.25a44.45,44.45,0,0,1-.62,7.44Zm22.2-12.89c0-4.59-2-12.28-10.66-12.28-7.94,0-11.16,7.32-11.66,12.28Z"/><path class="cls-1" d="M0,154.5a167.53,167.53,0,0,1,25.42-1.86c16,0,26.41,3,34.34,8.93,8.68,6.45,14.14,16.74,14.14,31.5,0,16-5.83,27-13.76,33.85-8.81,7.31-22.32,10.78-38.69,10.78A162.19,162.19,0,0,1,0,236.46Zm18.85,68.08a35.61,35.61,0,0,0,6.57.37c17.23.12,28.52-9.3,28.52-29.26,0-17.36-10.17-26.54-26.54-26.54a39.5,39.5,0,0,0-8.55.75Z"/><path class="cls-1" d="M105.65,159.34c0,5.21-3.85,9.42-10.17,9.42-6,0-9.8-4.21-9.8-9.42s4-9.42,10-9.42S105.52,154,105.65,159.34ZM86.18,236.83V176.2H105v60.63Z"/><path class="cls-1" d="M177.56,228c0,11.66-2.35,21.2-9.3,27.28-6.57,5.7-15.62,7.44-24.55,7.44-8.06,0-16.36-1.61-21.82-4.59l3.72-14.38a36.86,36.86,0,0,0,17.61,4.59c8.92,0,15.74-4.72,15.74-16v-3.84h-.24c-3.6,5-9.43,7.81-16.37,7.81-15,0-25.67-12.15-25.67-29.51,0-19.59,12.53-32,27.53-32,8.31,0,13.51,3.59,16.61,8.68h.25l.62-7.32h16.37c-.25,4-.5,9.05-.5,18.11Zm-18.84-27.15a16.32,16.32,0,0,0-.38-3.47c-1.36-5-5-8.31-10.16-8.31-7,0-12.4,6.2-12.4,17.23,0,9,4.46,16.12,12.27,16.12a10.31,10.31,0,0,0,10-7.56,17.55,17.55,0,0,0,.62-5.09Z"/><path class="cls-1" d="M212.16,159.34c0,5.21-3.84,9.42-10.17,9.42-6,0-9.79-4.21-9.79-9.42s4-9.42,10-9.42S212,154,212.16,159.34Zm-19.47,77.49V176.2h18.85v60.63Z"/><path class="cls-1" d="M247.75,159.84V176.2h13.51v13.89H247.75V212c0,7.31,1.86,10.66,7.44,10.66a22.79,22.79,0,0,0,5.58-.5l.12,14.26a39.61,39.61,0,0,1-12.15,1.61c-6.08,0-11.16-2.1-14.26-5.2-3.47-3.6-5.21-9.43-5.21-18v-24.8h-8.06V176.2h8.06V164.92Z"/><path class="cls-1" d="M322.64,222.2c0,5.71.25,11.29,1,14.63h-17l-1.11-6.07h-.37c-4,4.84-10.17,7.44-17.36,7.44-12.28,0-19.59-8.93-19.59-18.6,0-15.75,14.13-23.19,35.58-23.19v-.74c0-3.35-1.73-7.94-11-7.94A34.11,34.11,0,0,0,276,192.32l-3.47-12.15c4.21-2.36,12.52-5.46,23.55-5.46,20.22,0,26.54,11.91,26.54,26.29Zm-18.23-14c-9.92,0-17.6,2.36-17.6,9.55,0,4.84,3.22,7.19,7.43,7.19A10.42,10.42,0,0,0,304,218a13.43,13.43,0,0,0,.37-3.23Z"/><path class="cls-1" d="M337.65,148.8h18.84v88H337.65Z"/><path class="cls-1" d="M397.54,153.26h18.84V221h33.23v15.87H397.54Z"/><path class="cls-1" d="M511.12,222.2c0,5.71.24,11.29,1,14.63h-17L494,230.76h-.37c-4,4.84-10.16,7.44-17.36,7.44-12.27,0-19.59-8.93-19.59-18.6,0-15.75,14.14-23.19,35.59-23.19v-.74c0-3.35-1.74-7.94-11-7.94a34.11,34.11,0,0,0-16.74,4.59L461,180.17c4.22-2.36,12.53-5.46,23.56-5.46,20.21,0,26.54,11.91,26.54,26.29Zm-18.23-14c-9.92,0-17.61,2.36-17.61,9.55,0,4.84,3.23,7.19,7.44,7.19a10.42,10.42,0,0,0,9.8-6.94,14,14,0,0,0,.37-3.23Z"/><path class="cls-1" d="M526.12,195.55c0-7.57-.25-13.89-.49-19.35H542l.87,8.43h.37A21.8,21.8,0,0,1,562,174.84c12.4,0,21.7,8.31,21.7,26.16v35.83H564.81v-33.6c0-7.81-2.73-13.14-9.55-13.14-5.21,0-8.31,3.6-9.67,7.07a13.45,13.45,0,0,0-.62,4.71v35H526.12Z"/><path class="cls-1" d="M657.56,148.8v69.93c0,6.82.25,14,.5,18.1H641.32l-.75-8.8h-.37c-3.72,6.7-11.16,10.17-19,10.17-14.38,0-25.92-12.28-25.92-31.12-.12-20.46,12.65-32.37,27.16-32.37,7.56,0,13.27,2.73,16,6.82h.25V148.8Zm-18.85,53.07a16.79,16.79,0,0,0-.25-3.47,11.32,11.32,0,0,0-11-9.18c-8.68,0-13,7.69-13,17.24,0,10.29,5.08,16.74,12.9,16.74a11.17,11.17,0,0,0,11-9.06,24.35,24.35,0,0,0,.37-4.34Z"/><path class="cls-1" d="M672.57,220.47a36.79,36.79,0,0,0,16.24,4.46c5.7,0,8.06-1.86,8.06-5s-1.86-4.71-8.81-7.07c-12.64-4.21-17.48-11-17.35-18.22,0-11.41,9.67-20,24.67-20a39.85,39.85,0,0,1,17,3.6l-3.23,13A30.19,30.19,0,0,0,696,187.86c-4.59,0-7.19,1.86-7.19,4.83s2.35,4.47,9.79,7.07c11.54,4,16.25,9.92,16.37,18.72,0,11.41-8.8,19.72-26.16,19.72-7.94,0-15-1.86-19.59-4.34Z"/><path class="cls-1" d="M772,235.22c-3.35,1.61-9.67,2.85-16.86,2.85-19.59,0-32.12-12-32.12-31,0-17.73,12.15-32.24,34.72-32.24a43.87,43.87,0,0,1,14.38,2.35l-3,14a25.65,25.65,0,0,0-10.54-1.86c-9.92,0-16.37,7.06-16.24,17,0,11,7.43,17,16.61,17a26.62,26.62,0,0,0,10.79-2Z"/><path class="cls-1" d="M833.39,222.2c0,5.71.25,11.29,1,14.63h-17l-1.11-6.07h-.37c-4,4.84-10.17,7.44-17.36,7.44-12.28,0-19.6-8.93-19.6-18.6,0-15.75,14.14-23.19,35.59-23.19v-.74c0-3.35-1.73-7.94-11-7.94a34.08,34.08,0,0,0-16.74,4.59l-3.48-12.15c4.22-2.36,12.53-5.46,23.56-5.46,20.21,0,26.54,11.91,26.54,26.29Zm-18.23-14c-9.92,0-17.61,2.36-17.61,9.55,0,4.84,3.23,7.19,7.44,7.19a10.42,10.42,0,0,0,9.8-6.94,13.43,13.43,0,0,0,.37-3.23Z"/><path class="cls-1" d="M848.39,196.54c0-7.94-.24-14.63-.49-20.34h16.37l.86,8.43h.25c4.47-6.32,11.41-9.79,20.21-9.79,13.27,0,25.17,11.53,25.17,30.87,0,22.07-14,32.49-27.52,32.49-7.32,0-13-3-15.75-6.94h-.25v30.13H848.39Zm18.85,14.26a20.2,20.2,0,0,0,.37,4,11.41,11.41,0,0,0,11,8.93c8.18,0,13-6.82,13-17.11,0-9.67-4.34-17-12.77-17a11.84,11.84,0,0,0-11.29,9.55,15,15,0,0,0-.37,3.35Z"/><path class="cls-1" d="M937.42,212.53c.5,7.81,8.31,11.53,17.11,11.53a49.82,49.82,0,0,0,16.74-2.6l2.48,12.77c-6.2,2.6-13.76,3.84-21.94,3.84-20.59,0-32.37-11.9-32.37-30.87,0-15.37,9.55-32.36,30.63-32.36,19.59,0,27,15.25,27,30.25a44.45,44.45,0,0,1-.62,7.44Zm22.2-12.89c0-4.59-2-12.28-10.66-12.28-7.94,0-11.16,7.32-11.66,12.28Z"/><path class="cls-1" d="M109.12,325l5,24.93c1.11,6.2,2.35,12.89,3.35,19.83h.37c1.11-6.94,3-13.76,4.34-19.71L128.58,325h14.88l6.08,24.18c1.74,6.95,3.35,13.64,4.46,20.58h.25c.87-6.82,2.11-13.76,3.6-20.7L162.93,325h18.48l-18.6,60.64H145.2l-5.7-21.21a178,178,0,0,1-4-19h-.25a164.18,164.18,0,0,1-3.84,18.85l-6.08,21.33H107.63L89.9,325Z"/><path class="cls-1" d="M209.68,308.14c0,5.21-3.84,9.42-10.17,9.42-5.95,0-9.79-4.21-9.79-9.42s4-9.42,10-9.42S209.56,302.81,209.68,308.14Zm-19.47,77.5V325h18.85v60.64Z"/><path class="cls-1" d="M245.27,308.64V325h13.51v13.89H245.27v21.95c0,7.31,1.86,10.66,7.44,10.66a22.79,22.79,0,0,0,5.58-.5l.12,14.26a39.55,39.55,0,0,1-12.15,1.62c-6.08,0-11.16-2.11-14.26-5.21-3.47-3.6-5.21-9.43-5.21-18v-24.8h-8.06V325h8.06V313.72Z"/><path class="cls-1" d="M269.69,297.6h18.85v34.72h.25a20.27,20.27,0,0,1,7.44-6.33,21.62,21.62,0,0,1,9.79-2.35c12,0,21.21,8.31,21.21,26.66v35.34H308.38V352.28c0-7.93-2.73-13.39-9.8-13.39a10,10,0,0,0-9.42,6.7,11,11,0,0,0-.62,4.09v36H269.69Z"/><path class="cls-1" d="M417.75,350.3H387v19.84h34.34v15.5H368.15V302.06h51.46v15.5H387v17.36h30.75Z"/><path class="cls-1" d="M448,325l6,10.17c1.73,3.1,3.34,6.08,5,9.05h.24c1.62-3.35,3.1-6.32,4.72-9.3l5.33-9.92h20.46l-20,28.89,20.21,31.75H468.59l-6.08-10.92c-1.73-3-3.22-6.07-4.71-9.17h-.37c-1.49,3.22-3.1,6.2-4.59,9.17l-5.7,10.92H426.43L447,354.76,426.93,325Z"/><path class="cls-1" d="M498,345.34c0-7.94-.25-14.63-.5-20.34h16.37l.87,8.43H515c4.47-6.32,11.41-9.79,20.21-9.79,13.27,0,25.18,11.53,25.18,30.87,0,22.07-14,32.49-27.53,32.49-7.32,0-13-3-15.75-6.94h-.25v30.13H498Zm18.84,14.26a19.43,19.43,0,0,0,.38,4,11.4,11.4,0,0,0,11,8.93c8.18,0,13-6.82,13-17.11,0-9.67-4.34-17-12.77-17a11.84,11.84,0,0,0-11.28,9.55,14.45,14.45,0,0,0-.38,3.35Z"/><path class="cls-1" d="M587,361.33c.49,7.81,8.3,11.53,17.11,11.53a49.91,49.91,0,0,0,16.74-2.6L623.34,383c-6.2,2.61-13.77,3.85-22,3.85C580.81,386.88,569,375,569,356c0-15.37,9.54-32.36,30.62-32.36,19.59,0,27,15.25,27,30.25a44.45,44.45,0,0,1-.62,7.44Zm22.19-12.89c0-4.59-2-12.28-10.66-12.28-7.94,0-11.16,7.32-11.66,12.28Z"/><path class="cls-1" d="M638,345c0-8.93-.12-14.76-.5-20h16.12l.75,11.16h.49c3.1-8.93,10.42-12.65,16.37-12.65a18.64,18.64,0,0,1,4,.38v17.73a28,28,0,0,0-5.09-.5c-6.94,0-11.65,3.72-12.89,9.55a22.1,22.1,0,0,0-.37,4.22v30.75H638Z"/><path class="cls-1" d="M708.77,308.64V325h13.52v13.89H708.77v21.95c0,7.31,1.86,10.66,7.44,10.66a22.74,22.74,0,0,0,5.58-.5l.13,14.26a39.63,39.63,0,0,1-12.16,1.62c-6.07,0-11.16-2.11-14.26-5.21-3.47-3.6-5.2-9.43-5.2-18v-24.8h-8.06V325h8.06V313.72Z"/><path class="cls-1" d="M752.67,308.14c0,5.21-3.85,9.42-10.17,9.42-6,0-9.8-4.21-9.8-9.42s4-9.42,10-9.42S752.54,302.81,752.67,308.14Zm-19.47,77.5V325h18.85v60.64Z"/><path class="cls-1" d="M767.05,369.27a36.79,36.79,0,0,0,16.24,4.46c5.71,0,8.06-1.86,8.06-5s-1.86-4.71-8.8-7.07c-12.65-4.21-17.48-11-17.36-18.22,0-11.41,9.67-20,24.67-20a39.85,39.85,0,0,1,17,3.6l-3.22,13a30.24,30.24,0,0,0-13.15-3.47c-4.58,0-7.19,1.86-7.19,4.83s2.36,4.47,9.8,7.07c11.53,4,16.24,9.92,16.37,18.72,0,11.41-8.81,19.72-26.17,19.72-7.93,0-15-1.86-19.59-4.34Z"/><path class="cls-1" d="M835.5,361.33c.49,7.81,8.3,11.53,17.11,11.53a49.91,49.91,0,0,0,16.74-2.6L871.83,383c-6.2,2.61-13.77,3.85-22,3.85-20.58,0-32.36-11.91-32.36-30.88,0-15.37,9.54-32.36,30.62-32.36,19.59,0,27,15.25,27,30.25a44.45,44.45,0,0,1-.62,7.44Zm22.19-12.89c0-4.59-2-12.28-10.66-12.28-7.94,0-11.16,7.32-11.66,12.28Z"/><path class="cls-1" d="M883.11,375.59c0-6.82,4.59-11.53,11.16-11.53s10.92,4.59,11,11.53c0,6.57-4.46,11.41-11.28,11.41C887.7,387,883.11,382.16,883.11,375.59Z"/></g></g></svg>